PathFileType	4	(X/Y/Z)	Patient4_TMGait_0pt7_01_left_01.trc.trc
DataRate	CameraRate	NumFrames	NumMarkers	Units	OrigDataRate	OrigDataStartFrame	OrigNumFrames
86.956521739130	86.956521739130	5	33	mm	86.956521739130	106	       141
Frame#	Time	Sacral			L.Shoulder			Chest			R.Shoulder			Neck			R.ASIS			L.ASIS			R.Thigh.Superior			R.Thigh.Lateral			R.Thigh.Inferior			R.Patella			L.Thigh.Superior			L.Thigh.Lateral			L.Thigh.Inferior			L.Patella			L.Shank.Superior			L.Shank.Lateral			L.Shank.Inferior			R.Shank.Superior			R.Shank.Lateral			R.Shank.Inferior			R.Heel			R.Midfoot.Superior			R.Midfoot.Lateral			R.Toe			L.Heel			L.Midfoot.Lateral			L.Midfoot.Superior			L.Toe			L.Elbow			L.Wrist			R.Elbow			R.Wrist			
		X1	Y1	Z1	X2	Y2	Z2	X3	Y3	Z3	X4	Y4	Z4	X5	Y5	Z5	X6	Y6	Z6	X7	Y7	Z7	X8	Y8	Z8	X9	Y9	Z9	X10	Y10	Z10	X11	Y11	Z11	X12	Y12	Z12	X13	Y13	Z13	X14	Y14	Z14	X15	Y15	Z15	X16	Y16	Z16	X17	Y17	Z17	X18	Y18	Z18	X19	Y19	Z19	X20	Y20	Z20	X21	Y21	Z21	X22	Y22	Z22	X23	Y23	Z23	X24	Y24	Z24	X25	Y25	Z25	X26	Y26	Z26	X27	Y27	Z27	X28	Y28	Z28	X29	Y29	Z29	X30	Y30	Z30	X31	Y31	Z31	X32	Y32	Z32	X33	Y33	Z33	

106	2.337500000000	712.571040608302	1013.535449071069	583.100525896376	905.880598269895	1430.745886087196	389.032723295881	1015.531468563895	1352.869351013287	544.539112534777	949.136822656220	1440.446789949179	720.120123229801	925.189379965327	1492.391594157652	542.531637867505	942.377975900177	946.579385370781	691.895436382157	917.904187006331	961.307406126407	418.162001904002	967.376455472979	741.431798973604	667.912040956644	876.239724800512	636.910897798262	724.280290095407	952.881786696956	580.623021565285	648.026448700222	946.526665702561	494.519609915709	653.224630805773	1004.372364603455	796.022467985189	437.576746838824	966.546304924312	668.793535968911	354.248425611593	1078.910962857682	614.155820805200	405.300068409502	1101.474482229560	528.557831717048	393.825962720675	1048.881993523990	452.548560571885	391.236155020060	917.518419422666	379.183725074432	352.696671139446	940.818054256136	250.266515549303	405.774680106620	918.444665966924	407.084550638277	656.976233784140	841.373416993007	302.693631344626	710.229550972146	889.969643902894	208.847048156560	648.194576005284	758.884774543431	43.728594095552	602.199210192947	927.967257116750	97.720246712611	650.928765906189	837.126771462586	36.837750547031	682.958609898605	1045.624277226826	44.232198689668	686.412100571043	775.748294760612	139.304136417115	456.669760192037	836.220587675345	111.453808486498	370.564976253484	936.922968496097	146.419410204310	384.531143873707	1038.289107588960	59.640329614416	346.375122813910	800.610463574982	1090.976789255445	299.927814412870	984.380615000918	914.197172676772	295.540640551906	998.760985885618	1104.352422783152	862.741211816958	1199.402578576447	941.945945983771	834.384635881816	
107	2.349000000000	711.124254941895	1013.906451225570	583.576121204268	904.975939467540	1430.799851469746	389.557953884929	1014.865297676975	1352.491869463791	544.674591982772	949.135990257968	1440.084394871489	720.496808851383	924.739710794592	1492.217963563509	543.079496159222	940.910949492134	946.432428530721	691.791816704457	916.078811643157	961.160777412534	418.107099482452	963.507009818489	740.774315125355	667.474727068912	871.297667468602	637.044788334412	724.364424302496	946.853900520341	579.919203023082	648.062338765586	939.545157420534	494.200634974815	653.258482239020	1002.776069290494	797.141839790746	437.930346309647	966.344215573419	669.665918617334	354.060102954645	1078.590998649625	615.937085934190	405.909539494719	1102.640431891016	531.841225388785	394.145667203104	1053.573479826197	454.842760917427	390.747419687804	926.711383258121	374.620096095355	351.338525200461	957.375553843324	246.561853531704	403.403820061957	911.337507599979	406.999112168656	656.987871305471	833.967418344410	302.775512542767	710.181856632509	882.325417431766	208.791571988739	648.153368276275	750.861294623721	43.809142673849	602.184277540337	919.950333391505	97.689404051948	650.976570245890	829.059397657901	36.879032257277	682.921509228531	1037.572852470694	43.895574873679	686.512370104144	799.104951686792	126.042477850509	453.457214489114	860.906205983006	102.328091165834	367.107658277445	959.552094147296	142.615041548718	381.323387933112	1065.538295304686	61.827581259646	342.451355067630	799.582236954396	1090.589464585082	301.363913970574	970.097422480985	900.217014209492	298.757280328924	1006.510688615785	1105.381458084436	861.958153874183	1214.125130895705	953.190636859753	829.284584207776	
108	2.360500000000	709.750329885755	1014.168676468534	583.895706614894	904.179302516862	1430.636459290413	389.865265032903	1014.237995740508	1352.000166820412	544.679412225893	949.092072819566	1439.661367415938	720.687501009053	924.317850101158	1491.923693934599	543.412954968725	939.476726193529	946.189971391209	691.634063512898	914.390828818502	960.850179675180	417.953115459318	959.748980618859	740.055847622460	667.092775649698	866.418804934645	637.120413357245	724.399998000694	940.949203840974	579.178957774313	648.106827893644	932.690440700921	493.834542918599	653.271164776368	1000.969369135347	797.700441062682	438.252070083102	965.619968878643	670.029891421975	353.869900258713	1077.541859157713	616.947451939767	406.704745345045	1102.979369873676	534.538391874589	394.702073090255	1057.567243312876	456.847110445629	390.432356045815	935.901140580855	369.838048069195	349.779322242300	973.943974100220	243.150946528031	400.996310340828	904.307284158484	406.875499149018	656.967297422877	826.642997091061	302.832121666470	710.134295879882	874.704746758280	208.714067141325	648.097709942066	742.838950538531	43.881417187751	602.176727213683	911.925831152431	97.642852649546	651.004973079723	820.981952711380	36.917781205602	682.886896859740	1029.513238317074	43.558393917855	686.616818154788	823.129023302430	113.320684742685	449.788377326756	886.313153666098	93.775931196815	363.433780705882	982.502205455898	139.359784338098	378.151438981871	1092.928374501947	64.847105594182	339.044333445125	798.721370547066	1089.903462548049	302.763991150988	954.997573390386	887.000728551768	301.481336749747	1013.766062440188	1106.457265945759	860.875220961365	1227.788068749530	964.837060493959	823.866776087017	
109	2.372000000000	708.462788019184	1014.330563395009	584.049928956076	903.506762509400	1430.265857675754	389.939638978518	1013.657544699733	1351.406185601836	544.545766124985	949.003425584236	1439.197422213418	720.674181601201	923.932278508902	1491.520794297198	543.512392760102	938.078539998232	945.866184891054	691.449980916147	912.855817161720	960.380159176748	417.723735357090	956.110660919632	739.276991581855	666.804430848389	861.596148887051	637.141171392684	724.391747171901	935.177629067725	578.402423558212	648.170816954328	925.976259557356	493.418927622309	653.268514455257	998.961256721049	797.692334611375	438.541728999947	964.355906419750	669.894816863146	353.660970684745	1075.791934579080	617.194146974822	407.610572148039	1102.517606048291	536.646994510673	395.452371155082	1060.850638694665	458.579018961793	390.282385857011	945.036730964680	364.968923483602	348.043791569292	990.361863630656	240.183631845072	398.627979531082	897.357520053394	406.708389544036	656.912443893621	819.400091422532	302.870370423912	710.087123160468	867.110100064686	208.614888599880	648.029765442839	734.812531595197	43.946632316411	602.179667406925	903.892199838563	97.582366012954	651.017367168089	812.893570672698	36.954162019539	682.855084865948	1021.444896463331	43.229450937914	686.725430533622	847.572953322633	101.439773882349	445.790326407618	912.199031443944	86.028150218055	359.680861910165	1005.547221118299	136.815103053360	375.123012933567	1120.173616318872	68.796815080996	336.306402382696	797.919647866560	1088.988691240074	304.119121462973	939.172504094925	874.737521077795	303.651970194422	1020.510564557481	1107.563561811726	859.487357769151	1240.330587459533	976.788706323358	818.182313518580	
110	2.383500000000	707.276591945998	1014.399947177098	584.032946245718	902.970056338486	1429.706031012178	389.772062780991	1013.131274182475	1350.725057965670	544.268225798342	948.869778805544	1438.711900550244	720.442635670398	923.588891806973	1491.023599414297	543.362119652625	936.724817895697	945.477344440662	691.264863561435	911.487899979128	959.759951364838	417.438147405524	952.600043040317	738.441676522509	666.631143266763	856.830699832015	637.112968476540	724.340774681083	929.547657602547	577.592221921061	648.255272495117	919.418496510079	492.952868801250	653.251925703003	996.768112674617	797.125091128509	438.793891836866	962.554975402210	669.282710120328	353.415374988529	1073.396047312476	616.705819700285	408.537396538244	1101.299619202748	538.177842115484	396.339447010268	1063.422968944814	460.054492045547	390.272639149631	954.028804424103	360.135371818600	346.183147606508	1006.440909411367	237.768643138649	396.372875068442	890.495189761268	406.495114040431	656.820451630990	812.238877942722	302.899433172091	710.037305122362	859.546209520539	208.496194780862	647.950674107878	726.778790761684	44.006466892937	602.195041973364	895.849508530933	97.511055419852	651.017971193977	804.794885980490	36.989180013036	682.826361085438	1013.367955856942	42.916516859966	686.838021075421	872.134154331277	90.640486583879	441.633136716259	938.248941763725	79.253089987842	356.006588047489	1028.412729437496	135.085948951281	372.336062956416	1146.946006614181	73.700218910355	334.335050384308	797.076218009006	1087.923283462211	305.404934909325	922.761472279619	863.607684954494	305.217031854305	1026.728854221618	1108.687173952868	857.800327521016	1251.702039127182	988.939755963796	812.283572521249	
